<?xml version="1.0" encoding="UTF-8"?><svg xmlns="http://www.w3.org/2000/svg" xmlns:xlink="http://www.w3.org/1999/xlink" fill-opacity="1" color-rendering="auto" color-interpolation="auto" text-rendering="auto" stroke="black" stroke-linecap="square" width="461" stroke-miterlimit="10" shape-rendering="auto" stroke-opacity="1" fill="black" stroke-dasharray="none" font-weight="normal" stroke-width="1" height="535" font-family="'Dialog'" font-style="normal" stroke-linejoin="miter" font-size="12px" stroke-dashoffset="0" image-rendering="auto">
  <!--Generated by ySVG 2.5-->
  <defs id="genericDefs"/>
  <g>
    <defs id="defs1">
      <clipPath clipPathUnits="userSpaceOnUse" id="clipPath1">
        <path d="M0 0 L461 0 L461 535 L0 535 L0 0 Z"/>
      </clipPath>
      <clipPath clipPathUnits="userSpaceOnUse" id="clipPath2">
        <path d="M-176 -366 L285 -366 L285 169 L-176 169 L-176 -366 Z"/>
      </clipPath>
    </defs>
    <g fill="white" text-rendering="geometricPrecision" shape-rendering="geometricPrecision" transform="translate(176,366)" stroke="white">
      <rect x="-176" width="461" height="535" y="-366" clip-path="url(#clipPath2)" stroke="none"/>
    </g>
    <g text-rendering="geometricPrecision" stroke-miterlimit="1.45" shape-rendering="geometricPrecision" transform="matrix(1,0,0,1,176,366)" stroke-linecap="butt">
      <ellipse rx="25" fill="none" ry="26" clip-path="url(#clipPath2)" cx="0" cy="-325"/>
      <text x="-11.332" xml:space="preserve" y="-320.2861" clip-path="url(#clipPath2)" font-family="sans-serif" stroke="none">INIT</text>
      <ellipse rx="32" fill="none" ry="33.28" clip-path="url(#clipPath2)" cx="0" cy="-175"/>
      <text x="-28.6729" xml:space="preserve" y="-170.2861" clip-path="url(#clipPath2)" font-family="sans-serif" stroke="none">STOPPED</text>
      <ellipse rx="32" fill="none" ry="33.28" clip-path="url(#clipPath2)" cx="0" cy="0"/>
      <text x="-27.999" xml:space="preserve" y="4.7139" clip-path="url(#clipPath2)" font-family="sans-serif" stroke="none">RUNNING</text>
      <ellipse rx="32" fill="none" ry="33.28" clip-path="url(#clipPath2)" cx="126.8226" cy="120.5862"/>
      <text x="102.1488" xml:space="preserve" y="125.3" clip-path="url(#clipPath2)" font-family="sans-serif" stroke="none">PAUSED</text>
      <ellipse rx="32" fill="none" ry="33.28" clip-path="url(#clipPath2)" cx="-126.8226" cy="120.5862"/>
      <text x="-158.1527" xml:space="preserve" y="125.3" clip-path="url(#clipPath2)" font-family="sans-serif" stroke="none">TIMEDOUT</text>
      <path fill="none" d="M0 -299 L0 -216.28" clip-path="url(#clipPath2)"/>
      <path d="M0 -208.28 L5 -220.28 L0 -217.28 L-5 -220.28 Z" clip-path="url(#clipPath2)" stroke="none"/>
      <rect x="-23.0059" y="-297" clip-path="url(#clipPath2)" fill="white" width="46.0117" height="18.7012" stroke="none"/>
      <text x="-21.0059" xml:space="preserve" y="-282.9355" clip-path="url(#clipPath2)" font-family="sans-serif" stroke="none">ttim_set</text>
      <path fill="none" d="M22.6509 -151.4655 L40.475 -127.7 L46.8242 -118.0039 L51.3594 -108.2656 L54.0805 -98.4852 L54.9875 -88.6625 L54.0805 -78.7977 L51.3594 -68.8906 L46.8242 -58.9414 L40.475 -48.95 L26.999 -30.3552" clip-path="url(#clipPath2)"/>
      <path d="M22.3045 -23.8775 L33.3949 -30.66 L27.5858 -31.1649 L25.2977 -36.5282 Z" clip-path="url(#clipPath2)" stroke="none"/>
      <rect x="6.9756" y="-139.1204" clip-path="url(#clipPath2)" fill="white" width="53.3418" height="18.7012" stroke="none"/>
      <text x="8.9756" xml:space="preserve" y="-125.0559" clip-path="url(#clipPath2)" font-family="sans-serif" stroke="none">ttim_start</text>
      <path fill="none" d="M-21.5541 -24.6114 L-36.075 -46.2 L-41.6367 -55.6992 L-45.6094 -65.2969 L-47.993 -74.993 L-48.7875 -84.7875 L-47.993 -94.6805 L-45.6094 -104.6719 L-41.6367 -114.7617 L-36.075 -124.95 L-24.9546 -142.8608" clip-path="url(#clipPath2)"/>
      <path d="M-20.7348 -149.6573 L-31.3123 -142.0999 L-25.4821 -142.0112 L-22.8167 -136.8251 Z" clip-path="url(#clipPath2)" stroke="none"/>
      <rect x="-87.8428" y="-93.3506" clip-path="url(#clipPath2)" fill="white" width="52.6855" height="18.7012" stroke="none"/>
      <text x="-85.8428" xml:space="preserve" y="-79.2861" clip-path="url(#clipPath2)" font-family="sans-serif" stroke="none">ttim_stop</text>
      <path fill="none" d="M31.1852 7.4616 L53.625 17.7953 L64.1144 23.0629 L73.645 28.7635 L82.2169 34.8971 L89.83 41.4636 L96.4844 48.463 L102.1801 55.8954 L106.917 63.7608 L110.6952 72.059 L114.3096 81.3886" clip-path="url(#clipPath2)"/>
      <path d="M117.1997 88.8484 L117.527 75.8525 L113.9484 80.4562 L108.2023 79.465 Z" clip-path="url(#clipPath2)" stroke="none"/>
      <rect x="31.2758" y="17.5936" clip-path="url(#clipPath2)" fill="white" width="62.6992" height="18.7012" stroke="none"/>
      <text x="33.2758" xml:space="preserve" y="31.658" clip-path="url(#clipPath2)" font-family="sans-serif" stroke="none">ttim_pause</text>
      <path fill="none" d="M96.3244 110.5506 L73.8452 98.0685 L63.4717 91.9557 L54.0238 85.6513 L45.5016 79.1555 L37.905 72.4683 L31.2341 65.5896 L25.4888 58.5194 L20.6691 51.2578 L16.775 43.8047 L14.3681 38.5096" clip-path="url(#clipPath2)"/>
      <path d="M11.0577 31.2266 L11.4715 44.2201 L14.7819 39.42 L20.5752 40.0821 Z" clip-path="url(#clipPath2)" stroke="none"/>
      <rect x="18.4768" y="86.5784" clip-path="url(#clipPath2)" fill="white" width="53.3418" height="18.7012" stroke="none"/>
      <text x="20.4768" xml:space="preserve" y="100.6428" clip-path="url(#clipPath2)" font-family="sans-serif" stroke="none">ttim_start</text>
      <path fill="none" d="M158.3172 126.5441 L162.3926 125.4857 L163.7713 125.0471 L170.1227 122.5978 L176.7682 119.1971 L178.2776 118.3356 L185.1261 113.936 L192.0863 108.4902 L193.6455 107.1638 L200.5993 100.6468 L207.4285 93.0336 L208.9323 91.2199 L215.4996 82.5183 L221.6677 72.7361 L222.994 70.4421 L228.6186 59.6279 L233.5555 47.8304 L234.5761 45.0994 L238.6902 32.4117 L241.8463 18.9271 L242.4413 15.8419 L244.5308 1.6951 L245.445 -12.9789 L245.5176 -16.2983 L245.1903 -31.3325 L243.5552 -46.56 L243.0465 -49.9654 L240.0909 -65.203 L235.8023 -80.2674 L234.7012 -83.5958 L229.1248 -98.3071 L222.306 -112.4853 L220.6527 -115.5768 L212.6906 -129.0651 L203.6845 -141.7066 L201.5671 -144.4218 L191.6585 -156.0995 L180.9887 -166.6962 L178.5331 -168.9309 L167.2688 -178.3797 L155.5768 -186.6134 L152.9311 -188.3081 L140.984 -195.3127 L128.9543 -201.0739 L126.2719 -202.216 L114.3204 -206.7675 L102.6076 -210.1431 L100.0313 -210.7625 L88.6919 -213.0331 L77.8605 -214.2697 L75.51 -214.4297 L65.2869 -214.7265 L55.7724 -214.1777 L53.7368 -213.9618 L44.9942 -212.6702 L37.0868 -210.7387 L35.4224 -210.2384 L28.3786 -207.7657 L25.1409 -206.2315 L25.0552 -206.18" clip-path="url(#clipPath2)"/>
      <path d="M18.0361 -202.3418 L30.9637 -203.7122 L25.9326 -206.6598 L26.1658 -212.4861 Z" clip-path="url(#clipPath2)" stroke="none"/>
      <rect x="216.9581" y="-57.6133" clip-path="url(#clipPath2)" fill="white" width="52.6855" height="18.7012" stroke="none"/>
      <text x="218.9581" xml:space="preserve" y="-43.5488" clip-path="url(#clipPath2)" font-family="sans-serif" stroke="none">ttim_stop</text>
      <path fill="none" d="M-20.0328 25.9471 L-94.4058 96.6628" clip-path="url(#clipPath2)"/>
      <path d="M-100.2034 102.1753 L-88.0617 97.53 L-93.6811 95.9737 L-94.9523 90.283 Z" clip-path="url(#clipPath2)" stroke="none"/>
      <rect x="-93.9028" y="63.605" clip-path="url(#clipPath2)" fill="white" width="63.373" height="18.7012" stroke="none"/>
      <text x="-91.9028" xml:space="preserve" y="77.6694" clip-path="url(#clipPath2)" font-family="sans-serif" stroke="none">tim_update</text>
      <path fill="none" d="M-115.3859 89.4824 L-102.9952 63.259 L-97.8389 53.3858 L-92.1176 44.3954 L-85.8313 36.288 L-78.98 29.0636 L-71.5638 22.7221 L-63.5825 17.2635 L-55.0363 12.6879 L-45.925 8.9953 L-39.3577 6.7223" clip-path="url(#clipPath2)"/>
      <path d="M-31.7977 4.1058 L-44.773 3.3056 L-40.3027 7.0494 L-41.5024 12.7556 Z" clip-path="url(#clipPath2)" stroke="none"/>
      <rect x="-110.1709" y="12.6494" clip-path="url(#clipPath2)" fill="white" width="53.3418" height="18.7012" stroke="none"/>
      <text x="-108.1709" xml:space="preserve" y="26.7139" clip-path="url(#clipPath2)" font-family="sans-serif" stroke="none">ttim_start</text>
    </g>
  </g>
</svg>
